<svg width="53" height="40" viewBox="0 0 53 40" fill="none" xmlns="http://www.w3.org/2000/svg">
<g clip-path="url(#clip0_1_65)">
<path d="M12.6619 31.9199C10.4341 31.9199 8.62158 33.7324 8.62158 35.9603C8.62158 38.1881 10.4341 40.0006 12.6619 40.0006C14.8898 40.0006 16.7023 38.1881 16.7023 35.9603C16.7023 33.7324 14.8897 31.9199 12.6619 31.9199ZM12.6619 37.5764C11.7706 37.5764 11.0458 36.8516 11.0458 35.9603C11.0458 35.069 11.7706 34.3442 12.6619 34.3442C13.5528 34.3442 14.2781 35.069 14.2781 35.9603C14.2781 36.8515 13.5533 37.5764 12.6619 37.5764Z" fill="white"/>
<path d="M24.6212 31.9199C22.3933 31.9199 20.5808 33.7324 20.5808 35.9603C20.5808 38.1881 22.3933 40.0006 24.6212 40.0006C26.849 40.0006 28.6615 38.1881 28.6615 35.9603C28.6615 33.7324 26.849 31.9199 24.6212 31.9199ZM24.6212 37.5764C23.7299 37.5764 23.0051 36.8516 23.0051 35.9603C23.0051 35.069 23.7299 34.3442 24.6212 34.3442C25.5125 34.3442 26.2373 35.069 26.2373 35.9603C26.2373 36.8515 25.5125 37.5764 24.6212 37.5764Z" fill="white"/>
<path d="M31.6304 15.8921C31.4001 15.6028 31.0511 15.4344 30.6818 15.4344H9.4579L8.3561 9.86594C8.25953 9.37826 7.87491 8.99888 7.3856 8.9092L2.53718 8.02032C1.87743 7.8987 1.24712 8.33551 1.12631 8.99407C1.0055 9.65263 1.44144 10.2841 2.10006 10.4049L6.13798 11.1451L9.69509 29.1242C9.8074 29.6919 10.3056 30.1012 10.8841 30.1012H27.8536C28.418 30.1012 28.9073 29.7121 29.0346 29.1614L31.8628 16.9192C31.946 16.5592 31.8604 16.181 31.6304 15.8921ZM26.8895 27.677H11.8796L9.93746 17.859H29.1573L26.8895 27.677Z" fill="white"/>
</g>
<path d="M31.5 9C31.5 4.02944 35.5294 0 40.5 0H43.5C48.4706 0 52.5 4.02944 52.5 9C52.5 13.9706 48.4706 18 43.5 18H40.5C35.5294 18 31.5 13.9706 31.5 9Z" fill="white"/>
<path d="M39.3711 13C39.1218 13 38.8944 12.9413 38.6891 12.824C38.4911 12.6993 38.3334 12.538 38.2161 12.34C38.0988 12.1347 38.0401 11.911 38.0401 11.669V6.422C38.0401 6.17267 38.0988 5.949 38.2161 5.751C38.3334 5.54567 38.4911 5.38433 38.6891 5.267C38.8944 5.14233 39.1218 5.08 39.3711 5.08H44.7061C44.9481 5.08 45.1681 5.14233 45.3661 5.267C45.5714 5.38433 45.7328 5.54567 45.8501 5.751C45.9748 5.949 46.0371 6.17267 46.0371 6.422V11.669C46.0371 11.911 45.9748 12.1347 45.8501 12.34C45.7328 12.538 45.5714 12.6993 45.3661 12.824C45.1681 12.9413 44.9481 13 44.7061 13H39.3711ZM39.0521 12.098H44.7061C44.8234 12.098 44.9224 12.0577 45.0031 11.977C45.0911 11.889 45.1351 11.7863 45.1351 11.669V7.082L39.0521 12.098ZM38.9421 11.009L45.0141 5.993H39.3711C39.2538 5.993 39.1511 6.037 39.0631 6.125C38.9824 6.20567 38.9421 6.30467 38.9421 6.422V11.009Z" fill="#141820"/>
<defs>
<clipPath id="clip0_1_65">
<rect width="32" height="32" fill="white" transform="translate(0.5 8)"/>
</clipPath>
</defs>
</svg>
